<?xml version="1.0" encoding="UTF-8"?>
<svg id="Layer_1" data-name="Layer 1" xmlns="http://www.w3.org/2000/svg" viewBox="0 0 50 50">
  <defs>
    <style>
      .cls-1 {
        fill: #e8be37;
      }

      .cls-1, .cls-2, .cls-3, .cls-4, .cls-5, .cls-6 {
        stroke-width: 0px;
      }

      .cls-2 {
        fill: #242125;
      }

      .cls-7 {
        fill: #000;
        font-family: MyriadPro-Regular, 'Myriad Pro';
        font-size: 1.65px;
      }

      .cls-3 {
        fill: #c95e23;
      }

      .cls-4 {
        fill: #8b3c09;
      }

      .cls-5 {
        fill: #fff;
      }

      .cls-6 {
        fill: #c2d9ed;
      }
    </style>
  </defs>
  <path class="cls-5" d="M8.82,11.11c-1.16,2.99.16,6.17,2.84,12.42,3.43,7.96,5.84,10.25,6.58,10.92,2.21,2,4.13,3.73,6.36,3.44,2.08-.27,3.12-2.14,8.3-13.17,3.74-7.96,4.41-9.56,3.89-11.97-.93-4.25-4.63-6.63-5.61-7.26-5.99-3.84-13.68-2.16-18.25,1.05-1.43,1-3.22,2.25-4.11,4.56Z"/>
  <path class="cls-3" d="M20.96,39.85c.29-.22.66-.15.99-.22.56-.12,1.13-.22,1.69-.33.52-.11,1.03-.23,1.55-.34.48-.11,1.01-.24,1.45-.46.27-.13.52-.07.76,0-.24.38-.59.65-.91.95-.51.47-1.03.93-1.67,1.23-1.09.52-2.14.44-3.14-.24-.25-.17-.52-.32-.7-.59Z"/>
  <path class="cls-3" d="M7.23,13.93c-.55-2.9.31-5.37,2.29-7.5,1.37-1.48,3.09-2.39,4.97-3.04,1.89-.66,3.83-1.04,5.81-1.3,2.81-.38,5.58-.18,8.35.34,2.23.42,4.41,1.03,6.42,2.1,2.67,1.41,4.2,3.63,4.57,6.64.19,1.56,0,3.1-.28,4.63-.03.15.01.33-.12.45-.03-.08.04-.17-.03-.25-.04.16-.08.32-.14.52-.46-.38-.71-.88-1.08-1.29-.24-.27-.52-.51-.74-.8-.39-.5-.9-.87-1.33-1.32-.32-.34-.74-.59-1.11-.89-.3-.25-.58-.52-.87-.78-.07-.09-.14-.17-.2-.26-.71-1.18-1.71-2-2.95-2.59-2.28-1.08-4.71-1.56-7.2-1.76-1.45-.11-2.87.08-4.3.3-.56.03-1.09.19-1.63.33-.79.21-1.59.43-2.32.83h-.03c-.74.2-1.32.67-1.93,1.09-.02.01,0,.07,0,.11-.27.05-.41.27-.59.44-1.58,1.53-2.38,3.38-2.16,5.6.13,1.26.43,2.49.76,3.72.31,1.18.72,2.32,1.08,3.49,0,.2.08.21.07.35-.03.39.13.59-.14.99-.19.27-.08.61-.17.9-.11.36-.16.73-.28,1.07-.12.32-.08.68-.29.96-.06-.11-.13-.21-.18-.32-.78-1.54-1.48-3.11-2.07-4.73-.71-1.94-1.31-3.9-1.78-5.91-.16-.7-.29-1.4-.41-2.11Z"/>
  <path class="cls-4" d="M12.49,22.73c.14.34.27.68.42,1.01.56,1.35,1.17,2.68,1.91,3.94.16.36.34.72.59,1.03.01.03.03.05.04.08.05.17.13.32.27.43,0,.02.01.05.02.07,1.3,2.06,2.62,4.09,4.23,5.92.4.46.83.89,1.32,1.25.8.59,1.64.67,2.52.19.48-.26.86-.63,1.24-1.01,1.53-1.48,2.76-3.2,3.87-5,1.27-2.05,2.34-4.22,3.35-6.41.87-1.88,1.58-3.81,2.02-5.84.49-2.29.77-4.57-.27-6.8.01-.04,0-.07-.04-.09,0-.02-.02-.05-.03-.07.29.26.57.53.87.78.37.3.79.55,1.11.89.43.45.94.83,1.33,1.32.22.28.5.53.74.8.37.4.62.91,1.08,1.29.05-.2.09-.36.14-.52.07.07,0,.17.03.25.01.02.01.03,0,.05-.06.04-.06.1-.04.17-.02.15-.04.31-.06.46-.17.95-.48,1.87-.77,2.79-.3.95-.67,1.87-1.05,2.79-.66,1.59-1.45,3.13-2.23,4.66-.03.16-.17.24-.24.37-1.06,2.14-2.26,4.21-3.6,6.19-.21.31-.38.67-.68.91-.3.06-.36.15-.21.33-.01.05-.03.09-.09.11-.05-.07-.1-.06-.15-.01-.51.45-.69,1.15-1.23,1.58-.05.04-.03.17-.04.25,0,.02,0,.03-.01.04-.02.02-.04.04-.05.05,0,.02-.02.02-.03.02-.16.01-.22.14-.32.23-.17.16-.3.41-.49.49-.27.11-.28.27-.26.49-.02.03-.03.05-.05.08-.02,0-.04.02-.04.04,0,.02-.03.04-.05.04l-.02.02s-.04.04-.07.06c0,0,0,0,0,0-.03.02-.05.04-.08.06-.31,0-.46,0-.78.11-.46.16-.95.24-1.42.35-.52.11-1.03.23-1.55.34-.56.12-1.13.21-1.69.33-.33.07-.69,0-.99.22-.03,0-.06-.02-.09-.03,0-.03-.02-.04-.04-.05-1.38-1.23-2.53-2.67-3.62-4.15-.08-.24-.32-.34-.45-.53-.73-1.03-1.46-2.06-2.17-3.1-.84-1.24-1.6-2.53-2.33-3.84-.21-.37-.45-.73-.58-1.15l.82-4.27Z"/>
  <path class="cls-6" d="M30.58,34.63c.31-.24.47-.6.68-.91,1.34-1.98,2.54-4.04,3.6-6.19.07-.13.21-.21.24-.37.15.03.26-.04.36-.13.57-.51,1.19-.96,1.79-1.44.78-.62,1.56-1.24,2.25-1.96.33-.35.71-.67,1-1.05.27-.36.52-.74.66-1.19.15-.48.08-.96.11-1.44.31.34.58.73.73,1.15.14.39.37.73.53,1.1.5,1.2.97,2.39,1.02,3.72.03.75,0,1.49-.18,2.2-.3,1.18-.85,2.24-1.65,3.18-.9,1.06-2.01,1.87-3.17,2.61-.93.6-1.88,1.18-2.89,1.64-1.1.5-2.2,1-3.35,1.38-1.32.43-2.63.88-3.97,1.2-.23.05-.42.23-.67.19,0-.02-.01-.04-.02-.06.02-.03.03-.05.05-.08.43-.34.78-.75,1.07-1.21.02,0,.03,0,.03-.02.05.01.06,0,.05-.05.01,0,.02-.02.01-.04.57-.53.98-1.19,1.43-1.82.05-.02.07-.06.09-.11.11-.08.18-.19.21-.33Z"/>
  <path class="cls-1" d="M11.67,27c.13.42.37.77.58,1.15.73,1.31,1.5,2.59,2.33,3.84.7,1.05,1.44,2.07,2.17,3.1.13.19.37.3.45.53-.25-.23-.52-.33-.85-.17-.06.03-.15.02-.22,0-.96-.08-1.95-.05-2.86-.45-.59-.26-1.21-.45-1.69-.91-.17-.16-.33-.32-.56-.4-.04-.18-.19-.28-.31-.4-.77-.72-1.42-1.52-1.93-2.45-.3-.54-.54-1.1-.78-1.66-.21-.49-.34-1.03-.51-1.54-.51-1.54-.76-3.13-.9-4.75-.08-.9-.15-1.81-.14-2.71.02-1.32.23-2.62.41-3.92.11-.78.41-1.53.37-2.34.12.7.24,1.41.41,2.11.47,2.01,1.08,3.97,1.78,5.91.59,1.62,1.29,3.2,2.07,4.73.06.11.12.21.18.32Z"/>
  <path class="cls-6" d="M11.02,33.71c.23.07.39.23.56.4.48.45,1.11.65,1.69.91.91.4,1.89.37,2.86.45.07,0,.16.02.22,0,.33-.16.6-.07.85.17,1.09,1.48,2.24,2.92,3.62,4.15-.02.02-.02.04-.02.07-.45.05-.89.13-1.34.15-1.35.04-2.71.16-4.06.08-1.01-.06-2.03-.16-2.92-.69-.51-.3-.85-.77-1.1-1.31-.29-.62-.33-1.28-.39-1.95-.05-.61-.05-1.21-.06-1.82,0-.2.02-.4.08-.59Z"/>
  <path class="cls-1" d="M41.27,19.96c-.03.48.04.96-.11,1.44-.14.45-.39.83-.66,1.19-.29.38-.67.7-1,1.05-.69.72-1.47,1.34-2.25,1.96-.6.47-1.21.93-1.79,1.44-.11.09-.21.16-.36.13.78-1.54,1.56-3.07,2.23-4.66.38-.92.75-1.84,1.05-2.79.29-.92.6-1.83.77-2.79.73.84,1.46,1.67,1.98,2.66,0,.09-.02.18.08.23,0,0,0,0,0,0,.02.04.05.07.07.11,0,0,0,.03,0,.03Z"/>
  <path class="cls-3" d="M26.4,48.08c-.9.04-1.53-.73-1.5-1.57.04-.95.63-1.55,1.58-1.54.89,0,1.52.68,1.49,1.6-.03.93-.64,1.53-1.57,1.51ZM27.47,46.59c.02-.65-.4-1.17-.97-1.2-.65-.03-1.1.41-1.13,1.11-.02.64.41,1.13,1.02,1.15.5.01,1.08-.29,1.08-1.06Z"/>
  <path class="cls-3" d="M20.05,48.07c-.92,0-1.56-.63-1.55-1.54,0-.89.65-1.56,1.51-1.56.98,0,1.58.61,1.57,1.58,0,.91-.61,1.51-1.53,1.51ZM21.1,46.57c0-.68-.42-1.16-1.03-1.17-.63,0-1.08.46-1.08,1.12,0,.69.42,1.13,1.06,1.13.64,0,1.05-.42,1.05-1.08Z"/>
  <path class="cls-3" d="M31.03,47.66c-.53.51-1.17.54-1.8.3-.6-.22-.88-.74-.89-1.38-.02-.7.28-1.24.93-1.51.52-.21,1.05-.18,1.53.14.09.06.26.12.14.28-.1.13-.23.24-.41.11-.28-.2-.58-.25-.92-.16-.6.16-.95.86-.72,1.49.2.56.89.84,1.44.59q.44-.2.71.13Z"/>
  <path class="cls-3" d="M15.71,46.51c0-.41,0-.82,0-1.23,0-.18.06-.27.26-.26.4.01.8,0,1.19.01.63.03,1,.45.98,1.07-.02.62-.42,1.01-1.05,1.02-.16,0-.32,0-.48,0-.51-.01-.43-.01-.43.44,0,.09,0,.17,0,.26.01.18-.1.19-.24.2-.17.01-.22-.06-.22-.21,0-.43,0-.87,0-1.3h0ZM16.77,45.45c-.14,0-.27,0-.41,0-.1,0-.18.03-.18.14,0,.35-.13.75.06,1.02.14.2.54.04.82.07.02,0,.05,0,.07,0,.44-.06.65-.47.47-.88-.17-.39-.51-.33-.83-.34Z"/>
  <path class="cls-3" d="M23.53,48.08c-.75-.02-1.29-.37-1.5-.94-.23-.62-.04-1.42.44-1.81.48-.39,1.3-.47,1.83-.16.11.07.37.1.22.34-.11.17-.23.18-.43.05-.49-.31-1.06-.19-1.41.23-.3.36-.31,1.11-.02,1.47.34.41.92.52,1.42.26.04-.02.08-.05.13-.08.18-.11.29.03.37.14.09.13-.05.19-.14.25-.29.19-.61.27-.89.26Z"/>
  <path class="cls-3" d="M32.05,46.57c0,.4,0,.79,0,1.19,0,.17,0,.29-.23.29-.19,0-.26-.06-.26-.26,0-.84,0-1.69,0-2.53,0-.17.06-.24.24-.24.17,0,.25.07.24.24,0,.43,0,.87,0,1.3,0,0,0,0,0,0Z"/>
  <path class="cls-3" d="M32.41,44.16c-.1.17-.18.29-.26.41-.11.18-.27.22-.47.18-.05-.01-.09-.06-.06-.11.1-.18.1-.43.36-.47.12-.02.25,0,.42,0Z"/>
  <path class="cls-6" d="M41.2,19.82c-.1-.05-.08-.14-.08-.23.09.06.07.14.08.23Z"/>
  <path class="cls-3" d="M39.2,16.47c-.03-.06-.02-.12.04-.17.03.07.03.12-.04.17Z"/>
  <path class="cls-6" d="M41.27,19.92s-.05-.07-.07-.11c.05.02.07.06.07.11Z"/>
  <path class="cls-6" d="M27.64,38.27s.01.04.02.06c-.02,0-.04,0-.06-.02,0-.02.02-.04.04-.04Z"/>
  <path class="cls-3" d="M20.81,39.84s0-.05.02-.07c.03,0,.04.02.04.05,0,0-.03.02-.03.02h-.03Z"/>
  <path class="cls-4" d="M30.28,35.06c-.45.63-.86,1.29-1.43,1.82.01-.09,0-.21.04-.25.54-.43.72-1.14,1.23-1.58.05-.05.11-.06.15.01Z"/>
  <path class="cls-4" d="M28.76,36.99c-.29.46-.64.87-1.07,1.21-.02-.22-.01-.38.26-.49.2-.08.33-.32.49-.49.09-.09.16-.22.32-.23Z"/>
  <path class="cls-4" d="M30.58,34.63c-.02.14-.1.24-.21.33-.15-.18-.09-.26.21-.33Z"/>
  <path class="cls-6" d="M28.84,36.92s0,.06-.05.05c.02-.02.04-.04.05-.05Z"/>
  <path class="cls-3" d="M34.02,11.61s-.06-.05-.04-.09c.04.02.05.05.04.09Z"/>
  <path class="cls-2" d="M24.38,27.35c-.59.34-1.07.13-1.23-.55-.07-.3-.08-.62-.11-.92-.02-.16-.04-.32-.06-.48-.03-.17-.09-.32-.28-.35-.2-.04-.36.03-.49.2-.2.27-.25.59-.26.92,0,.21,0,.43-.08.63-.11.26-.24.53-.59.54-.28,0-.6-.27-.7-.58-.07-.23-.07-.47-.02-.7.3-1.65.72-3.28,1.16-4.9.16-.61.56-.69,1-.21.48.53.74,1.18.94,1.85.36,1.21.7,2.44.98,3.67.15,0,.17-.14.23-.22,1.05-1.36,2.09-2.72,3.13-4.09.1-.13.3-.27.21-.43-.07-.13-.3-.05-.46-.03-.44.05-.87.19-1.33.16-.19-.02-.37-.05-.53-.14-.07-.04-.13-.08-.13-.17,0-.1.1-.11.16-.12.94-.16,1.89-.34,2.84-.38.61-.03.99.51.79,1.13-.24.72-.57,1.4-.94,2.07-.4.72-.85,1.4-1.38,2.03-.19.23-.39.45-.67.58-.08.04-.18.07-.16.18.02.13.14.12.24.13.68.03,1.37.06,2.05.09.16,0,.32.03.48.04.09,0,.19.03.2.13.01.1-.09.15-.17.17-.31.08-.63.15-.94.21-.91.17-1.82.31-2.74.28-.5-.02-.93-.18-1.1-.71ZM22.41,22.23c-.11.02-.11.08-.12.14-.11.57-.06,1.14-.1,1.71,0,.12.08.2.16.28.06.06.13.14.22.11.11-.03.09-.14.1-.22.04-.44-.02-.87-.07-1.3-.03-.25-.05-.51-.19-.73Z"/>
  <path class="cls-2" d="M16.34,21.52c0-.27.03-.52.33-.65.39-.17.7.03.99.36.1.11.18.24.23.37.11.28.22.2.36.02.1-.13.21-.25.32-.38.27-.31.65-.51,1.06-.54.72-.06,1.2.39,1.09,1.04-.15.84-.59,1.55-1.06,2.24-.32.46-.72.85-1.08,1.28-.15.18-.24.36-.25.6-.03.53-.08,1.07-.13,1.6-.02.24-.08.46-.28.63-.49.39-1.19.03-1.3-.68-.13-.86-.14-1.73-.18-2.6-.02-.32,0-.65,0-.97l-.08-2.31ZM18.1,23.69s0,.02,0,.03c.02.13-.02.31.14.35.15.04.2-.13.26-.23.24-.36.47-.73.7-1.1.23-.37.46-.74.62-1.15.04-.11.12-.26,0-.34-.13-.1-.23.04-.31.12-.53.48-.98,1.03-1.3,1.66-.1.2-.13.43-.12.65Z"/>
  <path class="cls-2" d="M20.74,12.49c0,.36,0,.71,0,1.07,0,.17-.01.28-.23.27-.21,0-.21-.12-.21-.26,0-.57,0-1.14,0-1.72,0-.09-.08-.25.1-.27.13-.01.26-.04.37.11.28.38.58.74.91,1.15.11-.36.04-.67.05-.98,0-.16-.04-.32.23-.31.26,0,.23.16.23.32,0,.56,0,1.12-.01,1.68,0,.09.06.22-.07.26-.13.05-.24-.01-.32-.12-.29-.37-.58-.75-.87-1.12-.03-.04-.04-.09-.06-.14-.04.02-.09.04-.13.05Z"/>
  <path class="cls-2" d="M27.82,16.07c0,.7-.47,1.2-1.15,1.2-.69,0-1.17-.47-1.18-1.17,0-.7.46-1.19,1.15-1.2.68-.02,1.17.47,1.18,1.17ZM27.38,16.07c0-.45-.31-.77-.73-.77-.42,0-.72.32-.71.78,0,.47.28.76.73.76.43,0,.72-.32.72-.77Z"/>
  <path class="cls-2" d="M26.6,12.71c0-.7.46-1.19,1.15-1.2.68-.01,1.17.48,1.18,1.17,0,.68-.48,1.18-1.16,1.19-.69,0-1.16-.46-1.17-1.17ZM27.04,12.68c0,.46.28.78.71.79.43,0,.74-.29.74-.75,0-.46-.28-.78-.7-.8-.42-.02-.74.31-.75.76Z"/>
  <path class="cls-2" d="M25.91,13.05c.21.24.4.48.62.74-.32.08-.55.06-.72-.2-.1-.14-.24-.26-.34-.4-.11-.16-.27-.12-.41-.09-.16.03-.04.19-.08.28-.06.15.17.43-.2.45-.16,0-.25-.02-.25-.22.01-.61,0-1.22,0-1.83,0-.16.05-.22.21-.21.32.01.65,0,.97.02.35.01.61.21.69.52.1.39-.03.68-.37.87-.03.02-.06.04-.12.08ZM25.35,11.97c-.2-.02-.39-.03-.39.34,0,.33.13.41.41.37.25-.03.56.04.6-.33.03-.28-.14-.38-.63-.38Z"/>
  <path class="cls-2" d="M18.19,12.68c0-.3,0-.6,0-.9,0-.16.05-.21.21-.21.42,0,.85,0,1.27,0,.13,0,.23,0,.24.19,0,.2-.1.22-.25.21-.26,0-.52,0-.78,0-.22-.01-.23.11-.23.28,0,.17.04.25.23.24.26-.01.52,0,.78,0,.18,0,.2.07.21.22,0,.16-.08.19-.21.19-.24,0-.47,0-.71,0-.17,0-.31,0-.31.24,0,.24.11.26.3.25.25,0,.5,0,.75,0,.19-.01.22.07.23.24,0,.19-.09.2-.23.2-.42,0-.85,0-1.27,0-.17,0-.22-.05-.22-.21,0-.31,0-.62,0-.93Z"/>
  <path class="cls-2" d="M20,14.98c.38-.13.52.03.62.32.16.42.28.86.54,1.32.18-.47.36-.87.49-1.29.1-.32.25-.46.61-.35-.07.37-.27.7-.4,1.05-.13.35-.29.68-.42,1.03-.05.14-.14.19-.28.18-.12,0-.24.02-.31-.14-.28-.7-.57-1.39-.86-2.1Z"/>
  <path class="cls-2" d="M18.24,14.9c.23,0,.44.05.63.19.08.06.23.11.12.25-.08.1-.17.22-.34.1-.06-.04-.13-.07-.2-.09-.32-.09-.68.04-.85.31-.17.27-.15.66.04.91.2.26.56.34.91.21.13-.05.25-.22.42-.02.1.13.11.19-.02.29-.43.33-1.24.26-1.61-.15-.32-.36-.39-.94-.17-1.4.18-.38.6-.62,1.07-.61Z"/>
  <path class="cls-2" d="M24.5,17.27c-.52,0-.94-.26-1.09-.69-.19-.52-.07-1.09.3-1.41.37-.31.95-.37,1.36-.13.1.06.31.09.2.29-.09.15-.21.21-.4.09-.3-.18-.62-.13-.87.08-.24.21-.31.5-.22.82.12.41.56.62.98.47.07-.02.14-.06.2-.1.17-.11.26.04.33.14.11.15-.04.18-.13.24-.19.13-.42.19-.67.19Z"/>
  <path class="cls-2" d="M15.94,12.72c0-.94.92-1.5,1.75-1.06.1.05.3.09.2.27-.08.14-.18.21-.39.1-.57-.28-1.12.07-1.12.68,0,.59.58.95,1.14.64.23-.13.32-.05.41.1.13.23-.12.24-.22.29-.85.42-1.75-.11-1.75-1.02Z"/>
  <path class="cls-2" d="M23.42,11.58c.22,0,.45,0,.67,0,.14,0,.21.04.21.18,0,.14-.06.19-.2.21-.17.02-.4-.1-.5.09-.07.14-.02.34-.02.52,0,.32,0,.65,0,.97,0,.15.03.29-.21.29-.25,0-.25-.13-.24-.31,0-.44,0-.87,0-1.31,0-.22-.07-.29-.28-.26-.07.01-.15,0-.22,0-.14,0-.2-.05-.2-.2,0-.15.06-.2.2-.19.26,0,.52,0,.78,0h0Z"/>
  <path class="cls-2" d="M22.54,16.08c0-.31,0-.62,0-.93,0-.15.04-.22.21-.22.16,0,.25.02.25.22-.01.62,0,1.24,0,1.86,0,.18-.08.2-.23.2-.15,0-.23-.02-.23-.2.01-.31,0-.62,0-.93,0,0,0,0,0,0Z"/>
  <path class="cls-2" d="M19.77,16.07c0,.32,0,.65,0,.97,0,.16-.07.19-.2.17-.12-.01-.26.04-.26-.16,0-.64,0-1.29,0-1.93,0-.2.12-.16.25-.17.17-.02.21.04.21.2,0,.31,0,.62,0,.93Z"/>
  <path class="cls-2" d="M19.38,14.72q.19-.44.65-.41c-.15.24-.25.53-.65.41Z"/>
  <text class="cls-7" transform="translate(20.05 19.3)"><tspan x="0" y="0">POR LA</tspan></text>
</svg>